<?xml version="1.0" encoding="UTF-8"?><svg id="Calque_1" xmlns="http://www.w3.org/2000/svg" viewBox="0 0 294.32 354.89"><defs><style>.cls-1{fill:#009fe3;font-family:MVBoli, 'MV Boli';font-size:60px;}.cls-2{fill:#44a4dc;}</style></defs><g><path class="cls-2" d="M106.04,76.21l.11-39.52c4.63-3.69,7.64-9.58,7.66-16.2,.03-11.19-8.48-20.31-18.98-20.34s-19.07,9.05-19.1,20.24c-.02,6.62,2.96,12.52,7.57,16.24h0l-.11,39.52c-1.52,1.21-2.87,2.67-3.99,4.31l-13.12-.04-13.58-14.55,.08-29.13c4.77-3.68,7.9-9.65,7.92-16.39C60.53,9.15,52.01,.03,41.52,0c-10.5-.03-19.07,9.05-19.1,20.24-.02,6.5,2.85,12.3,7.32,16.03l-.1,34.58c0,3.25,1.17,6.31,3.32,8.62l20.25,21.7c2.15,2.31,5.02,3.58,8.07,3.59l18.23,.05c4.37,6.12,12.66,9.52,20.38,7.07l19.59,15.65c-1.08,3.53-1.68,7.29-1.69,11.2-.06,20.14,15.27,36.56,34.17,36.62,18.9,.05,34.32-16.29,34.37-36.43,.01-3.84-.54-7.54-1.57-11.03l19.7-15.7c1.68,.53,3.46,.82,5.3,.82,6.1,.02,11.54-3.04,15.04-7.8l18.23,.05c3.05,0,5.92-1.25,8.09-3.54l20.37-21.59c2.16-2.29,3.36-5.35,3.37-8.6l.1-34.58c4.49-3.7,7.39-9.49,7.41-15.99,.03-11.19-8.48-20.31-18.98-20.34s-19.07,9.05-19.1,20.24c-.02,6.74,3.07,12.73,7.82,16.44l-.08,29.13-13.66,14.47-13.12-.04c-1.11-1.64-2.45-3.11-3.97-4.33l.11-39.52c4.63-3.69,7.64-9.58,7.66-16.2,.03-11.19-8.48-20.31-18.98-20.34s-19.07,9.05-19.1,20.24c-.02,6.62,2.96,12.52,7.57,16.24h0l-.11,39.52c-4.63,3.69-7.64,9.58-7.66,16.2,0,0,0,.02,0,.03l-19.74,15.73c-2.31-1.64-4.81-2.99-7.46-4l.19-67.56h0c4.63-3.7,7.64-9.59,7.66-16.21,.03-11.19-8.48-20.31-18.98-20.34-10.5-.03-19.07,9.05-19.1,20.24-.02,6.62,2.96,12.52,7.57,16.24h0l-.07,23.56c0,2.24,1.69,4.06,3.8,4.07s3.81-1.81,3.82-4.05l.06-19.9c1.96,.4,4.54,.64,7.62,.02l-.17,62.05c-1.99-.23-4.51-.37-7.62-.02l.06-22.68c0-2.24-1.69-4.06-3.8-4.07s-3.81,1.81-3.82,4.05l-.07,24.55c-2.6,.97-5.06,2.28-7.33,3.86l-19.8-15.82c0-6.6-2.97-12.48-7.57-16.18h0Zm-22.69-55.8c.02-6.71,5.16-12.16,11.46-12.14,6.3,.02,11.41,5.49,11.39,12.21s-5.16,12.16-11.46,12.14-11.41-5.49-11.39-12.21Zm7.47,52.1l.09-32.2c1.96,.4,4.54,.64,7.62,.02l-.09,32.2c-1.23-.27-2.5-.42-3.81-.42s-2.58,.13-3.81,.4ZM30.03,20.26c.02-6.71,5.16-12.16,11.46-12.14s11.41,5.49,11.39,12.21-5.16,12.16-11.46,12.14-11.41-5.49-11.39-12.21Zm221.88,.62c.02-6.71,5.16-12.16,11.46-12.14s11.41,5.49,11.39,12.21c-.02,6.71-5.16,12.16-11.46,12.14s-11.41-5.49-11.39-12.21Zm-53.31-.15c.02-6.71,5.16-12.16,11.46-12.14s11.41,5.49,11.39,12.21c-.02,6.71-5.16,12.16-11.46,12.14s-11.41-5.49-11.39-12.21Zm7.47,52.1l.09-32.2c1.96,.4,4.54,.64,7.62,.02l-.09,32.2c-1.96-.4-4.54-.64-7.62-.02ZM140.97,20.57c.02-6.71,5.16-12.16,11.46-12.14s11.41,5.49,11.39,12.21-5.16,12.16-11.46,12.14c-6.3-.02-11.41-5.49-11.39-12.21ZM61.3,96.63c-1.02,0-1.97-.43-2.69-1.2l-20.25-21.7c-.72-.77-1.11-1.79-1.11-2.87l.09-30.77c1.31,.31,2.67,.48,4.06,.48,1.22,0,2.4-.12,3.56-.35l-.08,27.3c0,1.08,.4,2.11,1.11,2.87l15.8,16.93c.71,.76,1.68,1.19,2.69,1.2l11.4,.03c-.37,2.16-.55,4.77,.08,8.12l-14.66-.04Zm117.42,42.26c-.04,15.66-12.04,28.37-26.74,28.33s-26.62-12.82-26.58-28.48,12.04-28.37,26.74-28.33c14.7,.04,26.62,12.82,26.58,28.48Zm79.8-67.9c.72-.76,1.12-1.79,1.12-2.87l.08-27.3c2.03,.39,4.48,.58,7.62-.09l-.09,30.77c0,1.08-.4,2.1-1.12,2.87l-20.37,21.59c-.72,.76-1.68,1.18-2.7,1.18l-14.66-.04c.4-2.01,.67-4.95,.13-8.12l11.4,.03c1.01,0,1.98-.42,2.7-1.18l15.89-16.84Zm-60.13,21.7c.02-6.71,5.16-12.16,11.46-12.14s11.41,5.49,11.39,12.21c-.02,6.71-5.16,12.16-11.46,12.14-6.3-.02-11.41-5.49-11.39-12.21Zm-5.8,8.69c1.1,2.48,2.66,4.69,4.57,6.49l-15.58,12.42c-1.3-2.34-2.84-4.51-4.58-6.48l15.59-12.43Zm-65.23,12.16c-1.76,1.95-3.32,4.11-4.65,6.43l-15.53-12.41c1.91-1.8,3.47-4.01,4.58-6.49l15.6,12.47Zm-32.84-8.97c-6.3-.02-11.41-5.49-11.39-12.21s5.16-12.16,11.46-12.14c6.3,.02,11.41,5.49,11.39,12.21s-5.16,12.16-11.46,12.14Z"/><path class="cls-2" d="M274.4,148.9v5.31c-.03,3.76-2.9,6.81-6.43,6.8l-10.99-.03c-6.05-.02-11.41,4.08-13.33,10.2-1.48,4.71-3.3,9.35-5.41,13.79-2.74,5.76-1.72,12.71,2.55,17.28l7.76,8.31c1.2,1.29,1.87,3.01,1.86,4.83s-.68,3.53-1.89,4.82l-20.38,21.6c-2.5,2.65-6.56,2.64-9.05-.02l-7.76-8.32c-4.27-4.57-10.78-5.7-16.2-2.81-4.17,2.22-8.53,4.13-12.97,5.68-5.75,2.01-9.62,7.69-9.64,14.14l-.03,11.71c-.01,3.76-2.89,6.81-6.42,6.8l-28.75-.08c-3.53,0-6.39-3.08-6.38-6.84l.03-11.71c.02-6.45-3.83-12.16-9.56-14.2-4.42-1.58-8.78-3.51-12.93-5.76-5.41-2.92-11.92-1.83-16.22,2.72l-7.8,8.27c-2.5,2.65-6.56,2.64-9.05-.02l-20.27-21.72c-2.49-2.67-2.47-7,.02-9.64l7.81-8.27c4.29-4.55,5.36-11.49,2.65-17.26-2.08-4.44-3.88-9.09-5.33-13.81-1.88-6.13-7.22-10.25-13.27-10.27l-10.99-.03c-3.53,0-6.39-3.08-6.38-6.84l.08-30.09c0-3.35,2.36-6.24,5.46-6.73,.2-.03,.42,0,.63,.09l9.97,4.14c1.96,.81,4.17-.22,4.93-2.31,.76-2.09-.2-4.44-2.16-5.25l-9.97-4.14c-1.44-.6-2.99-.79-4.5-.55-6.81,1.06-11.96,7.4-11.98,14.74l-.08,30.09c-.02,8.23,6.24,14.95,13.97,14.97l10.99,.03c2.76,0,5.19,1.89,6.05,4.69,1.57,5.1,3.5,10.12,5.75,14.91,1.24,2.64,.76,5.81-1.2,7.88l-7.81,8.27c-5.47,5.81-5.5,15.28-.06,21.12l20.27,21.72c5.45,5.83,14.34,5.85,19.82,.05l7.8-8.27c1.96-2.07,4.93-2.57,7.4-1.24,4.49,2.42,9.19,4.51,13.96,6.21,2.62,.93,4.37,3.53,4.36,6.48l-.03,11.71c-.02,8.23,6.24,14.95,13.97,14.97l28.75,.08c7.73,.02,14.03-6.66,14.06-14.89l.03-11.71c0-2.94,1.78-5.54,4.4-6.45,4.78-1.67,9.49-3.74,14-6.13,2.48-1.32,5.45-.81,7.4,1.28l7.76,8.32c5.45,5.83,14.34,5.85,19.82,.05l20.38-21.61c5.48-5.81,5.51-15.28,.06-21.12l-7.76-8.31c-1.95-2.08-2.41-5.26-1.16-7.89,2.27-4.78,4.24-9.79,5.84-14.88,.87-2.79,3.32-4.66,6.08-4.65l10.99,.03c7.73,.02,14.03-6.66,14.06-14.89v-5.31c.02-2.24-1.68-4.06-3.78-4.07s-3.81,1.81-3.82,4.05Z"/><path class="cls-2" d="M206.42,133.9c-3.25,1.32-5.49,4.55-5.71,8.24-1.63,27.49-23.17,48.97-49.04,48.89-25.88-.07-47.3-21.67-48.77-49.18-.2-3.68-2.41-6.92-5.64-8.26l-32.12-13.34c-1.96-.81-4.17,.22-4.93,2.31-.76,2.09,.2,4.44,2.16,5.25l10.48,4.35c-.16,2.13-.24,4.29-.25,6.43-.13,46.69,35.41,84.77,79.22,84.9,17.94,.05,34.89-6.12,49.01-17.84,.96-.8,1.47-1.99,1.47-3.19,0-.88-.26-1.76-.8-2.5-1.29-1.77-3.68-2.08-5.34-.71-12.77,10.6-28.09,16.18-44.31,16.13-39.61-.11-71.75-34.54-71.63-76.76,0-1.12,.03-2.24,.08-3.36l14.19,5.89c.46,.19,.77,.65,.8,1.16,1.69,31.78,26.45,56.75,56.35,56.83,29.9,.08,54.79-24.74,56.67-56.5,.03-.52,.35-.98,.81-1.16l14.72-5.97c.83,18.02-4.82,36.87-15.63,51.06-1.31,1.75-1.05,4.3,.6,5.7,1.64,1.4,4.04,1.11,5.35-.64,12.54-16.64,18.61-37.62,17.15-59.16l37.11-15.05c.21-.08,.43-.11,.63-.08,3.1,.5,5.44,3.4,5.43,6.76l-.02,5.85c0,2.24,1.69,4.06,3.8,4.07s3.81-1.81,3.82-4.05l.02-5.85c.02-7.34-5.1-13.71-11.9-14.8-1.5-.24-3.04-.06-4.47,.52l-59.29,24.04Z"/></g><path class="cls-2" d="M152.21,23.99c3.22,0,3.22-5,0-5s-3.22,5,0,5h0Z"/><path class="cls-2" d="M148.85,23.48l3.19,3.84c.23,.24,.49,.42,.8,.52,.3,.16,.62,.23,.96,.22,.61,0,1.35-.27,1.77-.73s.76-1.1,.73-1.77l-.09-.66c-.12-.42-.33-.79-.64-1.1l-3.19-3.84c-.23-.24-.49-.42-.8-.52-.3-.16-.62-.23-.96-.22-.61,0-1.35,.27-1.77,.73s-.76,1.1-.73,1.77l.09,.66c.12,.42,.33,.79,.64,1.1h0Z"/><path class="cls-2" d="M150.25,21.01c-2.13-1.83-2.35-5.31,.27-6.84s5.44-.15,6.27,2.68c.89,3.03-1.11,6.08-4.04,7.32-2.44,1.03-6.9,.72-6.92-2.64,0-.51,.16-.97,.51-1.31,.31-.3,.83-.49,1.12-.53,1.39-.23,2.62,.28,3.63,1.37,1.2,1.3,1.77,3.07,2.14,4.76,.09,.42,.42,1.35,.18,1.76s-1.37,.57-1.78,.64c-2.59,.41-5.66-1.11-7.37-3.43-1.23-1.68-2.72-5.73-.03-6.9,3.7-1.61,8.96-1.96,12.37,.49,1.21,.87,2.21,2.25,2.67,3.64,.52,1.58,.56,3.05-.23,4.47l4.66,1.26-.5-11.59c-.14-3.26,.03-7-2.7-9.32-2.32-1.98-5.57-2.51-8.51-2.84-2.74-.31-5.69-.13-8.14,1.23-2.72,1.51-4.32,4.51-4.15,7.61,.18,3.38,2.03,6.18,4.69,8.16,2.49,1.85,6.24,3.48,9.4,2.97s5.01-3.25,5.3-6.28c.31-3.22-1.53-6.12-3.91-8.13s-5.73-4.81-9.03-3.69c-1.67,.57-2.54,2.01-3.19,3.54-.78,1.81-1.36,3.78-1.26,5.77,.16,3.29,2.09,6.56,5.37,7.57s6.39-.76,7.52-3.8-.78-5.89-3.54-7.13c-4.5-2.02-11.17,0-12.55,5.14-.95,3.51,1.17,6.77,3.98,8.7,2.52,1.73,5.76,2.51,8.79,2.43,6.12-.15,12.2-3.56,14.98-9.11,.61-1.21,.32-2.71-.9-3.42-1.11-.65-2.81-.31-3.42,.9-2.95,5.88-11.22,8.77-16.79,4.98-.64-.43-1.27-1-1.61-1.72-.07-.15-.25-.64-.25-.61-.03-.16-.02-.35-.02-.51,0-.52-.08,.23,.05-.31,.07-.29,.24-.61,.59-.97,.28-.29,1.03-.77,1.29-.88,.33-.14,.68-.23,1.03-.32,.17-.04,.35-.08,.53-.1-.35,.05,.1,0,.14,0,.91-.04,1.12-.06,1.97,.27-.26-.1,.52,.28,.61,.34,.06,.05,.49,.48,.46,.44-.11-.15,.17-.36,0,.12,.04-.12,.12-.3-.06,.15,.01-.03-.19,.3-.38,.45-.31,.26-.53,.33-1.09,.12-.64-.25-1.14-.89-1.41-1.5-.86-1.9,.18-3.82,.79-5.6,.24-.71,.17-.19,.11-.21,.36,.08,.72,.33,1.04,.52,.89,.55,1.77,1.16,2.58,1.83,1.35,1.11,2.62,2.52,2.62,4.12,0,.47-.11,1.05-.43,1.51,.14-.2-.5,.45-.26,.28-.27,.19-.66,.24-1.14,.18-1.82-.23-3.88-1.18-5.31-2.33s-2.45-2.76-2.31-4.59c.12-1.45,1.06-2.41,2.19-2.84,1.73-.65,3.77-.54,5.6-.24,1.59,.26,4.35,.48,5.19,2.1,.45,.86,.4,1.96,.44,2.9,.06,1.47,.13,2.94,.19,4.41l.4,9.28c.1,2.39,3.41,3.52,4.66,1.26,2.63-4.74,.9-10.85-3.22-14.18-4.77-3.87-11.69-3.87-17.24-1.77-1.43,.54-2.71,1.24-3.63,2.5s-1.32,2.86-1.44,4.43c-.18,2.46,.59,5.03,1.95,7.07,2.9,4.35,8.24,7.1,13.48,5.91,3.12-.71,5.47-2.96,5.15-6.34-.29-3.06-1.37-6.17-3.32-8.57-3.3-4.06-10.93-5.04-13.55,.37-1.33,2.75-.66,5.99,1.25,8.28s5.2,3.25,8.13,2.97c5.7-.54,10.98-5.16,11.09-11.11,.12-6.44-6.07-11.84-12.41-9.47-2.96,1.11-5.33,3.56-5.85,6.74s.47,6.55,2.95,8.69c1.02,.88,2.53,1,3.54,0,.9-.9,1.03-2.65,0-3.54h0Z"/><path class="cls-2" d="M152.71,14.99h-1c-.34-.01-.67,.06-.96,.22-.31,.1-.58,.27-.8,.52-.24,.23-.42,.49-.52,.8-.16,.3-.23,.62-.22,.96l.09,.66c.12,.42,.33,.79,.64,1.1l.51,.39c.39,.23,.81,.34,1.26,.34h1c.34,.01,.67-.06,.96-.22,.31-.1,.58-.27,.8-.52,.24-.23,.42-.49,.52-.8,.16-.3,.23-.62,.22-.96l-.09-.66c-.12-.42-.33-.79-.64-1.1l-.51-.39c-.39-.23-.81-.34-1.26-.34h0Z"/><path class="cls-2" d="M152.21,21.99c3.22,0,3.22-5,0-5s-3.22,5,0,5h0Z"/><path class="cls-2" d="M152.21,21.99c3.22,0,3.22-5,0-5s-3.22,5,0,5h0Z"/><path class="cls-2" d="M152.23,17.23c-3.59,5.01-5.71,10.84-6.47,16.93-.2,1.64,1.76,2.81,3.16,2.41,4.59-1.31,8.24-4.93,9.65-9.48,.39-1.25-.46-2.78-1.75-3.08-1.36-.31-2.66,.41-3.08,1.75-.07,.22-.14,.43-.21,.64-.23,.68,.22-.41-.1,.24-.2,.41-.41,.81-.65,1.19-.12,.19-.25,.38-.37,.57-.25,.38,.09-.09-.09,.12-.29,.35-.59,.69-.91,1-.3,.29-.61,.57-.93,.82,.4-.31-.19,.12-.22,.14-.19,.13-.38,.25-.57,.36-.39,.23-.79,.44-1.21,.62,.33-.14,.04-.02-.14,.04-.25,.09-.5,.17-.75,.24l3.16,2.41c.04-.31,.04-.36,.02-.14,.03-.18,.05-.36,.08-.53,.06-.36,.12-.71,.19-1.06,.12-.62,.26-1.23,.41-1.84,.34-1.35,.77-2.68,1.28-3.98,.03-.09,.33-.8,.21-.53,.14-.33,.29-.66,.44-.98,.29-.61,.59-1.21,.92-1.8,.67-1.22,1.42-2.4,2.23-3.53,.76-1.07,.22-2.83-.9-3.42-1.29-.68-2.6-.24-3.42,.9h0Z"/><path class="cls-2" d="M160.67,23.31l-3.37-6.09c-.95-1.71-1.82-3.77-3.85-4.41-2.29-.73-4.21,.75-5.86,2.11-1.45,1.18-2.84,2.53-3.66,4.24-1.52,3.17-.84,7.73,2.77,9.13s8.1-2.03,6.7-5.89c-.73-2.01-3.38-2.5-4.57-.6-2.38,3.81-4.24,10.94,1.55,12.82,2.56,.83,5.45-.26,7.15-2.28,1.96-2.34,2.28-5.37,2.46-8.3,.14-2.26-2.78-3.17-4.27-1.77-1.95,1.84-2.06,5.4,.53,6.72,2.02,1.03,4.45,.71,6.33-.49,4.64-2.97,4-8.7,2.51-13.26-1.21-3.69-3.12-7.9-6.84-9.66-4.53-2.14-9.26,.06-11.98,3.94-2.49,3.55-3.12,8.68-1.01,12.55s6.84,5.35,10.72,3.47c4.1-1.99,4.4-7.34,1.29-10.36s-8.33-2.15-9.58,2.19,2.2,9.12,6.9,7.71c2.48-.75,4.32-3.14,4.82-5.62,.63-3.13-.6-6.1-1.82-8.91l-3.93,3.03c2.38,2.46,3.89,5.53,4.53,8.89,.31,1.63,.35,3.37,.14,5.01-.13,1.08-.11,2.57-1.34,2.8-2.93,.55-5.65-2.19-6.79-4.59-1.69-3.58-1.29-7.89-1.03-11.71,.11-1.58-1.69-2.89-3.16-2.41-4.23,1.38-7.32,5.07-7.81,9.51s2.06,8.87,5.93,10.8c7.92,3.96,17.32-3,16.94-11.55-.19-4.33-2.4-8.41-5.83-11.04-2.16-1.65-4.83-2.42-6.93-.18-1.58,1.68-2.38,4.04-2.53,6.31-.31,4.45,2.66,8.65,7.07,9.56s8.61-1.38,9.63-5.76c.5-2.17,.2-4.58-1.13-6.4-1.84-2.54-5.06-3.45-7.58-1.31-4.01,3.42-6.08,9.17-6.52,14.27-.07,.82,.52,1.79,1.24,2.16,5.79,2.92,13.65-1.68,13.29-8.38-.17-3.2-5.17-3.22-5,0,.15,2.77-3.3,5.31-5.77,4.07l1.24,2.16c.26-3,1.34-5.86,3.02-8.35,.38-.57,.8-1.1,1.25-1.6,.07-.08,.66-.64,.65-.66l.07-.03c-.49-.01-.58,.06-.28,.2,.01,.16,.46,.53,.56,.77,.17,.38,.23,.89,.2,1.39-.11,1.67-1.45,2.92-3.38,2.69-2.15-.25-3.57-2.05-3.57-4.21,0-.6,.09-1.13,.27-1.7s.58-1.02,.78-1.56l.04-.06c.48-.4,.27-.42-.65-.06,0,.03,.58,.34,.69,.42,.61,.41,1.15,.91,1.64,1.45,1.54,1.67,2.52,3.94,2.55,6.22,.05,4.44-4.41,8.4-8.74,7.14-2.41-.7-4.18-3.19-4.2-5.68s1.79-4.96,4.2-5.75l-3.16-2.41c-.28,4.1-.48,8.41,.93,12.34,1.24,3.47,3.69,6.57,7.12,8.07s8.51,1.37,10.19-2.64c1.4-3.35,1.26-7.51,.53-10.99-.84-4.03-2.88-7.77-5.74-10.72-.86-.89-2.33-.95-3.28-.2-1.05,.84-1.16,2.05-.64,3.23,.81,1.87,2.44,5.36,.31,6.98-.24,.18-.39,.22-.64,.29-.43,.12-.37-.05,.01,.08-.1-.03-.37-.26-.06,.02-.46-.41-.45-.54-.48-1.21-.02-.72-.08,.23,0-.18,.04-.2,.1-.38,.16-.57-.13,.47,.19-.14,0,.03-.26,.23,.3-.28,.27-.26-.4,.3-.06,.06,.21,.07-.35-.02,.32,.11,.14,.04s.61,.4,.43,.26c.56,.45,.89,1.12,.81,1.66-.04,.29-.57,.78-.91,.91-1.4,.51-3,.01-3.86-1.47-1.03-1.79-.81-4.22-.01-6.06s2.56-3.83,4.72-3.96c1.98-.12,3.4,1.61,4.31,3.2,1.32,2.31,2.46,5.32,2.58,7.98,.06,1.28-.12,2.54-1.19,3.32-.33,.24-.75,.43-1.16,.46-.15,.01-.37-.09-.67-.29l.9,.9c.04,.09,.13,.54,.12,.56l-4.27-1.77c-.09,1.49-.13,3.19-.89,4.53-.45,.79-1.43,1.6-2.24,1.29-.22-.08-.28-.23-.35-.49-.08-.29-.06-.81,.01-1.21,.24-1.38,.89-2.65,1.63-3.83l-4.57-.6c.31,.86,.03-.55,.24-.38,.14,.11-.61,.35-.38,.28,.31-.1,.19,.5-.06-.05,.08,.18-.18-.35-.11-.2-.67-1.31,.5-2.77,1.48-3.72,.66-.63,1.37-1.29,2.14-1.79,1.08-.7-.4,.17-.24-.47-.05,.21,.74,1.29,.85,1.48l3.85,6.96c1.56,2.82,5.88,.3,4.32-2.52h0Z"/><path class="cls-2" d="M167.83,115.02c-14.47,5.01-27.11,14.51-35.93,27.03-2.28,3.24-5.07,7.19-4.13,11.37,.48,2.15,2.01,3.64,3.72,4.9s3.45,2.45,5.2,3.61c7.06,4.7,15.17,8.46,23.85,7.22,7.68-1.09,13.26-6.57,16.36-13.42s4.88-14.32,5.06-21.6c.1-3.79-.48-7.58-2.08-11.04-1.7-3.66-4.74-6.46-8.18-8.47-3.63-2.12-7.69-3.63-11.68-4.89-4.3-1.36-8.74-2.34-13.21-2.87-2.13-.25-4.35-.23-6.37,.57s-3.57,2.16-4.91,3.77c-2.61,3.12-4.87,6.57-6.76,10.18s-3.52,7.59-4.67,11.6c-.57,1.97-1.03,3.97-1.39,5.99-.22,1.25-.48,2.45,.47,3.48,.73,.79,1.59,1.48,2.33,2.27,1.4,1.48,2.63,3.07,3.75,4.78l1.49-3.67c.19-.05,.4,.1,.56,.17-.41-.2,.09,.21,0,0-.16-.33-.33-.82-.36-1.14-.13-1.25,.34-2.44,.9-3.75,1.3-3.02,3.31-5.68,5.78-7.82s6-4.07,9.46-4.25c2.92-.15,6.13,.96,7.54,3.71,1.11,2.16,.35,4.88-1.47,6.52s-4.5,1.51-6.48,.05c-1.64-1.21-3.09-4.01-1.61-5.76,.64-.76,1.59-.51,2.35,.12,1.2,.99,1.46,2.72,1.52,4.19,.06,1.31,.17,2.93-.35,4.16-.35,.83-.77,.8-1.53,.2-1.31-1.03-1.97-2.68-2.52-4.19-.71-1.96-1.25-4.01-1.54-6.08-.05-.35-.07-.69-.1-1.04-.02-.22,.08-.34,0-.3-.02,0-.28,.41-.28,.4-.03,.13,.08,.08,.25,.25,.46,.48,.63,1.34,.8,1.96,.29,1.06,.53,2.13,.73,3.2,.39,2.05,.63,4.11,.73,6.2,.09,1.85,.22,3.87-.1,5.71-.18,1.02-.5,1.46-1.41,1.11-1.29-.51-1.71-2.04-1.99-3.26-.35-1.54-.72-3.36-.53-4.95,.06-.49,.19-.96,.52-1.33,.24-.26,.65-.42,.88-.47,2.85-.52,4.61,2.33,5.46,4.77,.26,.75,.48,1.51,.69,2.28,.22,.81,.65,1.82,.53,2.68-.02,.13-.19,.49-.15,.39,.12-.27,.03-.03,0-.03-.24,.04-.63,.12-.86,.09-.59-.1-.83-.18-1.33-.58,.22,.18-.26-.32-.08-.08-.27-.34-.46-.73-.59-1.14-.55-1.6-.36-3.4-.21-5.05,.05-.58,.12-.98,.29-1.63,.12-.44,.45-.97,.5-1.12-.12,.38-.61-.34,.02,.34,.45,.48,.81,.98,1.11,1.57,1.08,2.11,1.03,4.82,.04,6.98-.48,1.05-1.18,2.02-2.11,2.7-.2,.14-.45,.31-.67,.41,.07-.03,.2-.05,.27,0,.26,.17-.26-.35-.3-.41-.49-.6-.9-1.33-1.2-2.05-.58-1.41-.82-3.07-.58-4.58l-3.08,1.75c2.99,.42,4.9,3.65,4.12,6.48-.93,3.39-4.72,5.07-7.98,4.97-2.43-.07-3.47,3.52-1.26,4.66,5.84,3.01,12.96,2.64,18.63-.63,2.74-1.58,5.17-3.89,6.73-6.66,1.03-1.84,1.73-4.03,1.12-6.13-.5-1.71-1.79-3.1-3.39-3.85-3.24-1.52-7.41-1.21-10.55,.41-3.32,1.72-5.14,5.95-3.17,9.36,2.08,3.59,7.14,3.2,9.76,.45,2.13-2.24,2.88-5.76,1.85-8.68-2.46-7-12.74-6.33-15.13,.38-1.19,3.35,.89,8.15,4.88,8.05,4.21-.11,5.65-4.84,6.53-8.18,1.05-3.99,.8-8.09-2.11-11.23-2.42-2.61-6.14-3.88-9.64-3.33-7.36,1.16-11.41,10.16-7.81,16.54,1.83,3.25,5.42,5.16,9.12,4.32,3.59-.82,6.21-4.25,5.45-7.95-.7-3.39-4.16-5.76-7.48-5.95-3.58-.2-6.81,2.33-8.35,5.43-.84,1.69-1.27,3.46-1.41,5.34-.1,1.35,1.22,2.5,2.5,2.5,1.43,0,2.4-1.15,2.5-2.5,.22-3.11,3.1-7.47,6.32-5.15,1.18,.85,1.51,2.04,.39,2.92s-2.57,.79-3.7-.19c-2.94-2.56-1.84-7.42,1.11-9.47s7.32-.69,8.49,2.73c.82,2.4-.26,5.54-1.18,7.78-.13,.31-.28,.64-.47,.92,0,.01-.48,.63-.32,.45,.04-.04,.23,.09,.25,.14-.1-.28-.33-.39-.4-.72-.25-1.21,.88-2.24,1.92-2.63,.62-.23,1.41-.32,1.84-.25,.74,.12,1.27,.46,1.56,.84,.79,1.06,.75,2.54,.24,3.59-.29,.6-.66,1.08-1.22,1.3-.26,.1-.53,.2-.81,.21-.44,.02-.33-.13-.44-.32s-.07-.93,.13-1.29c.46-.82,1.43-1.23,2.3-1.47,1.56-.44,4.03-.72,5.33,.4,.41,.35,.39,1.06,.1,1.81-.37,.95-.99,1.86-1.64,2.63-1.4,1.67-3.2,2.98-5.19,3.86-3.83,1.69-8.38,1.82-12.13-.12l-1.26,4.66c5.52,.17,11.59-3.27,12.88-8.95,1.18-5.2-2.1-11.54-7.69-12.33-1.21-.17-2.85,.28-3.08,1.75-.46,2.94-.15,5.79,1.11,8.5,1.16,2.49,3.3,5.28,6.39,4.75,2.46-.42,4.54-2.57,5.79-4.63s1.83-4.38,1.87-6.71-.53-4.6-1.69-6.56c-1.32-2.23-3.64-4.45-6.45-3.79-2.47,.58-3.82,3.08-4.27,5.4-.49,2.51-.65,5.3-.1,7.81,.58,2.63,2.22,4.79,4.75,5.75,2.14,.82,4.75,.6,6.51-.95,2.26-2,1.87-5.05,1.17-7.67s-1.6-5.37-3.35-7.58c-2.91-3.66-9.23-5.2-12.53-1.13-1.95,2.41-1.71,5.46-1.29,8.34,.38,2.6,.98,5.43,2.95,7.33s4.94,2.68,7.41,1.47c2.7-1.32,3.26-4.33,3.38-7.06,.14-3.09-.06-6.17-.49-9.23-.39-2.82-.8-6.14-2.27-8.63s-4.5-3.84-7.13-2.44c-3.04,1.62-2.37,5.25-1.82,8.04,.94,4.8,3.35,12.84,9.44,13.01,6.37,.18,6.69-8.35,5.72-12.75-.6-2.73-2.3-5.14-4.91-6.25s-5.4-.6-7.24,1.47c-3.63,4.1-1.67,10.22,2.33,13.21s9.75,2.82,13.29-.87,4.19-9.34,1.13-13.43c-3.48-4.65-9.59-5.86-14.99-4.35s-9.75,5.01-12.95,9.33c-2.79,3.76-5.64,9.27-3.52,13.93,.97,2.13,3.08,3.3,5.39,2.7,1.5-.39,2.38-2.32,1.49-3.67-1.94-2.97-4.23-5.68-6.86-8.06l.64,2.43c1.12-6.93,3.43-13.59,6.96-19.66,1.68-2.89,3.56-5.94,5.97-8.27s5.9-1.7,9.02-1.15c3.78,.67,7.51,1.63,11.14,2.87,3.32,1.14,6.65,2.45,9.61,4.34,2.45,1.57,4.5,3.69,5.63,6.4,1.19,2.85,1.4,6,1.26,9.04s-.75,6.26-1.48,9.33c-.68,2.87-1.49,5.75-2.65,8.46-2.28,5.35-6.04,10.02-11.95,11.34-6.77,1.51-13.56-1.39-19.22-4.87-1.51-.93-2.98-1.92-4.44-2.92-1.34-.93-3.18-1.85-4.18-3.17-1.7-2.26,1.53-6.08,2.76-7.87,8.04-11.71,19.98-20.74,33.39-25.38,1.28-.44,2.12-1.71,1.75-3.08-.34-1.24-1.79-2.19-3.08-1.75h0Z"/><path class="cls-2" d="M142.15,154.31c-.09-.87-.26,.84-.48,.46-.03-.05,.81-.17,.4-.12-.05,0,.86,.01,.48-.03,1.08,.13,2.24,1.27,3.4,1.9,2.93,1.59,6.68,1.32,8.31-1.95,3.47-6.98-5.97-12.4-11.9-10.7-2.9,.83-5.22,3.21-5.75,6.22s.78,6.36,3.87,7.53c2.35,.89,5.28,.31,7.02-1.53,2.36-2.5,1.61-6.39-.93-8.45-5.53-4.49-12.81,1.67-12.23,7.86,.5,5.36,5.3,10.35,10.86,10.2,5.6-.15,10.02-5.03,10.88-10.35,.4-2.44,.55-7.33-2.51-8.1-1.7-.43-3.44,.46-4.31,1.94-1.01,1.71-.67,3.75,.63,5.2,2.11,2.37,5.9,2.76,8.85,2.32s5.77-1.92,7.68-4.22c2.04-2.46,3.17-5.72,2.95-8.92s-1.52-6.67-4.73-7.91c-6.14-2.36-13.78,2.22-13.61,9.02,.07,2.99,1.68,5.82,4.45,7.07,2.62,1.18,5.79,1.03,8.27-.46,5.24-3.13,5.03-10.94,.52-14.63-4.81-3.94-12.28-2.09-15.38,3.09-3.28,5.5-1.35,13.81,4.55,16.72,3.03,1.49,6.52,1.31,9.55-.07s4.94-3.87,6.1-6.77c2.24-5.6,.77-13.39-5.08-16.2-2.9-1.39-6.3-.84-8.53,1.53s-3.39,5.96-3.41,9.08c-.05,6.45,7.09,9.64,12.42,6.73,5.84-3.18,5.77-11.36,2.66-16.37-1.75-2.82-4.23-4.99-6.86-6.96-.64-.48-1.89-.47-2.52,0-2.93,2.18-6.06,5.28-6.29,9.15-.25,4.16,3.68,6.95,7.55,6.84,3.59-.1,7.06-2.36,8.71-5.55s1.37-7.11-1-10.01c-2.01-2.47-5.45-3.98-8.64-3.72-4.04,.33-6.89,3.16-8.75,6.59-3.69,6.81-3.59,16.56,4.02,20.64,3.1,1.66,6.99,2.04,10.12,.22,2.7-1.58,4.18-4.67,4.28-7.73s-1.3-6.13-4.04-7.5c-2.21-1.11-4.15,.65-5.68,2.16-1.39,1.38-2.56,3.11-3.07,5.02-.93,3.47,.51,7.03,3.8,8.6,3.11,1.48,7.16,.75,8.41-2.81s-1.46-7.73-5.27-7.86c-4.13-.14-7.43,4.38-5.82,8.22,1.36,3.25,5.61,4.83,8.74,3.13s3.73-6.09,1.78-8.89c-2.38-3.42-7.01-3.08-9.8-.35-3.4,3.33-2.77,8.29-1.75,12.48,.44,1.8,1.25,3.71,3.05,4.52,1.14,.51,2.07,.36,3.03-.39,3.51-2.76,.75-9.42-3.68-8.9-1.17,.14-2.02,.69-2.41,1.84-.76,2.2-.47,4.49,.59,6.53,.66,1.27,2.25,1.45,3.42,.9,3.55-1.69,3.84-7.39,.47-9.44-1.74-1.06-3.96-.92-5.63,.2-1.97,1.32-2.81,3.4-2.43,5.71,.22,1.33,1.87,2.08,3.08,1.75,1.42-.39,1.96-1.74,1.75-3.08,.05,.28,.31-.13,.39-.23-.07,.1,.3-.26,.15-.11,.04-.04,.12,.18,.07,.03,.06,.21,.13,.61-.37,.85l3.42,.9c-.46-.89-.41-1.75-.09-2.68l-2.41,1.84c.26-.03,.26,.03,.07-.08,.56,.32,0-.08,0-.05,.01-.03,.16,.24,.11,.08,.05,.16,.09,.32,.14,.48-.07-.25-.03-.13-.03,.07,0-.25,.18-.26,.05-.25-.11,.01,.11-.11-.18,.12l3.03-.39c-.49-.22-.53-.68-.67-1.19-.28-1.07-.54-2.18-.68-3.28-.21-1.7-.17-3.77,1.32-4.91,.39-.3,.86-.53,1.36-.48,.44,.04,.47,.21,.61,.52,.13,.28,.16,.62,.14,1.11,0-.14-.06,.13-.14,.26,.04-.07-.09,.11-.28,.22,.13-.07-.19,.02-.2,.02-.41,.03-.28,.02-.58-.09-.33-.12-.73-.31-.87-.72,.09,.27,.01-.29-.01-.15,.04-.24,.12-.45,.28-.65,.27-.34,.68-.49,.95-.44,.08,.01,.43,.33,.48,.43,.19,.38,.16,.5,.14,.77,.01-.19-.24,.33,0,.03-.07,.1-.34,.23-.06,.09-.1,.05-.22,.22-.13,.09,.12-.18-.32,.05-.07,.03,.26-.03-.14,0-.16,0-.16,0-.35,0-.51-.02,.16,.02,.3,.07-.11-.06-.28-.09-.26-.05-.64-.27-.49-.29-.8-.56-.99-.95-.2-.42-.18-1.26,.02-1.92,.55-1.79,2.11-3.16,3.64-4.13h-2.52c.51,.23,.83,.45,1,.63,.32,.34,.17,.18,.1,.08,.15,.2,.28,.43,.39,.65,.1,.2,.16,.39,.26,.87,.17,.77,0-.41,.05,.39,.02,.32,.01,.63,0,.94-.09,1.36-.84,2.84-2.33,3.41-1.8,.7-3.97,.07-5.56-1.11-2.01-1.49-2.95-3.88-2.98-6.33-.04-2.88,.96-5.68,2.51-8.08,.63-.97,1.4-1.91,2.43-2.46,.71-.38,1.69-.52,2.4-.44,1.89,.22,3.64,1.32,4.38,3.02,.69,1.59-.07,3.67-1.53,4.95-.75,.67-1.74,1.18-2.72,1.31s-2.46-.1-2.88-1.14c-.64-1.61,2.44-4.5,3.8-5.52h-2.52c3.65,2.74,7.76,7.05,6.22,12.04-.56,1.81-1.94,2.96-3.46,3.06s-3.1-.4-3.41-2.04c-.38-1.98,.59-5.02,2.02-6.46s3.1-.52,4.27,.85c2.82,3.32,2.1,9.3-1.36,11.95-1.65,1.27-4.06,1.79-6.02,1-2.07-.83-3.34-3.09-3.67-5.2-.63-4.03,2.47-8.23,6.81-7.38,1.9,.37,3.17,1.91,3.49,3.76,.26,1.5-.29,3.04-1.69,3.76-1.27,.65-3.16,.64-4.15-.43-1.25-1.35-.91-3.58,.21-4.89,.78-.91,1.94-1.43,3.1-1.64,.86-.16,2.23-.25,3.01,.25s1.08,1.96,1.2,2.78c.19,1.33,0,2.76-.49,4.01-.91,2.34-2.94,3.92-5.35,4.48-1.1,.26-2.27,.27-3.37,0-.29-.07-.59-.14-.87-.26-.13-.06-.53-.34-.59-.34-.05,0-.21,1.43-1.15,1.06l-1.75-1.75c1.46,3.92-.64,9.75-5.31,10.28-1.69,.19-3.63-.87-4.79-2.34-1.28-1.62-1.8-3.7-.98-5.29,.87-1.69,3.25-2.86,4.27-.78,.08,.17-.07,.53,.04,.15-.13,.41,.11,0-.21,.29,.31-.28-.29,.17-.33,.19,.39-.18-.38,.09-.39,.09,.42-.09-.94-.06-.52,.02,0,0-.78-.26-.39-.09-.21-.09-.26-.1-.32-.17-1.27-1.49,.31-3.8,2.2-4.17s5.56,.73,5.9,2.88c.15,.92-.24,1.3-1.13,.9-1.54-.68-2.73-1.96-4.38-2.45-3.01-.9-7.69,.51-7.29,4.38,.14,1.34,1.05,2.5,2.5,2.5,1.24,0,2.64-1.15,2.5-2.5h0Z"/><path class="cls-2" d="M156.73,144.41c-2.76,5.51-6.25,10.47-10.53,14.87l3.93,3.03c1.21-2.18,2.56-4.26,4.06-6.25,.66-.87,.33-2.31-.39-3.03-.84-.84-2-.85-3.03-.39-4.37,1.94-7.11,6.21-7.72,10.85-.17,1.34,1.27,2.5,2.5,2.5,1.5,0,2.33-1.15,2.5-2.5-.05,.4,.04-.15,.06-.23,.04-.21,.09-.42,.15-.63,.11-.41,.24-.83,.41-1.22-.13,.3,.07-.12,.12-.22,.1-.19,.2-.38,.31-.57,.21-.37,.45-.74,.71-1.08-.16,.21,.03-.03,.09-.1,.17-.19,.34-.38,.52-.57,.27-.28,.56-.54,.86-.78,.13-.11,.13-.11,0,0l.21-.15c.18-.12,.36-.24,.54-.35,.41-.25,.83-.46,1.26-.65l-3.42-3.42c-1.5,1.99-2.85,4.07-4.06,6.25-1.35,2.44,1.9,5.11,3.93,3.03,4.55-4.68,8.4-10.05,11.31-15.88,.6-1.21,.32-2.71-.9-3.42-1.11-.65-2.81-.32-3.42,.9h0Z"/><path class="cls-2" d="M152.88,164.53c.97-1.36,2.62-2.41,4.3-2.62l-2.16-3.76-3.69,5.3c-1.13,1.62,.39,3.72,2.16,3.76,7.74,.18,14.3-4.01,18.35-10.46,4.43-7.06,4.91-15.5,3.38-23.51-.97-5.07-2.74-9.94-4.68-14.7l-4.57,1.93c2.13,4.78,3.5,9.88,4.22,15.06,.38,2.76,5.28,2.13,4.91-.66-.57-4.36-1.35-8.68-2.41-12.96l-1.75,3.08c-.36,.06-.09,0-.07,.01,0,0,.11,.07,.15,.11,.31,.28,.58,.77,.76,1.24,.59,1.52,.59,2.86,.63,4.47l.19,6.48c.05,1.91,.4,4.09-.04,5.97-.13,.54-.3,.95-.75,1.27-.3,.22-.21,.18-.35,.08-.53-.39-.86-1.87-1.05-2.43-.35-1.02-.65-2.05-.89-3.1-.83-3.57-.72-7.21-1.07-10.84s-1.09-7.03-3.37-9.88c-2.41-3-6.15-4.26-9.81-4.95s-8.12-1.47-11.45,.85c-2.79,1.94-3.92,5.4-3.32,8.68,.67,3.7,3.84,6.36,7.6,6.39s7.23-2.36,8.35-5.95l-3.08,1.75c.69,.16,1.3,.78,2.02,1.44,.91,.83,1.92,1.7,3.14,2.04,2.99,.84,5.61-1.29,6.21-4.18,1.09-5.22-2.85-9.86-7.32-11.93-8.92-4.12-24.57-2.04-25.81,9.86-.24,2.35,.26,4.91,1.62,6.88,1.73,2.52,4.41,3.66,7.39,3.92,2.8,.24,6.19,.14,8.6-1.46,2.11-1.41,3.19-3.87,3.07-6.37-.27-5.5-5.4-9.2-10.71-7.63-2.6,.77-4.94,2.6-6.27,4.97-1.4,2.49-1.8,5.98,.27,8.25,2.34,2.56,6.16,1.65,8.02-.96s.98-6.14-1.77-7.7c-2.6-1.48-6.1-1.02-8.13,1.21-2.33,2.55-2.33,6.18-1.02,9.2,.83,1.91,4.23,1.45,4.57-.6s-.19-3.89-1.76-5.26-3.91-1.91-5.85-.9c-3.18,1.65-3.94,6.54-1.13,8.91,.84,.71,2.03,1,3.03,.39,2.62-1.61,4.1-4.18,4.41-7.22,.11-1.06-.85-2.16-1.84-2.41-3.14-.81-5.49,1.78-5.71,4.74s2.2,5.38,5.1,5.93c3.43,.65,7.19-.34,10.6-.8s6.91-.86,10.14-2.2c5.6-2.32,10.44-8.39,7.6-14.58-2.08-4.54-8.09-7.34-12.83-5.5-1.82,.71-3.04,1.73-3.38,3.74-.3,1.77,.08,3.64,1.13,5.11,2.37,3.31,7,3.46,9.95,.87,.66-.58,.86-1.61,.64-2.43-1.28-4.75-7.63-4.2-10.28-1.03-3.18,3.79-2.17,10.49,2.5,12.58s10.42-.94,9.76-6.35c-.28-2.3-1.65-4.38-3.85-5.23-2.83-1.09-4.82,1.6-5.7,3.98-1.59,4.28,.63,9.67,5.35,10.56,4.35,.82,9.4-2.23,9.25-7.02s-5.78-8.57-10.16-6.3c-4.77,2.47-5.06,9.04-3.08,13.37,2.15,4.72,7.14,7.83,12.35,7.13s9.94-4.88,10.75-10.16h-4.82l1.94,8.41c.25,1.06,1.35,1.84,2.41,1.84,2.51,0,4.09-2.17,3.96-4.57-.16-2.76-2.05-4.32-4.49-5.22-.83-.31-1.83-.46-2.55-1.02-.86-.68-1.28-1.9-1.8-2.82-1.21-2.11-2.95-3.64-5.22-4.54-4.26-1.68-9.46-.41-12.14,3.38s-2.23,8.93,.46,12.4c1.56,2.01,4.13,3.76,6.71,2.58s3.55-4.25,4.16-6.75c1.09-4.53,1.53-13.15-4.29-14.74-2.48-.67-5.31,.34-7.01,2.2-1.83,2-2.57,4.71-3,7.33-.69,4.23-.35,10.02,4.52,11.58,5.95,1.9,9.68-4.87,10.31-9.72,.79-6.06-.68-12.33-4.08-17.41-.86-1.29-2.76-1.74-3.93-.51-3.36,3.58-5.32,8.33-5.38,13.25-.03,2.29,.24,4.91,1.59,6.84,1.61,2.31,4.52,3.16,6.82,1.26,1.86-1.54,3.05-4.09,3.86-6.31s1.24-4.9,1.14-7.37-.43-5.36-2.31-7.03c-2.15-1.9-5.03-.87-7.21,.38-7.4,4.25-11.48,14.36-8.17,22.42,1,2.44,3.08,4.39,5.88,4.16,2.65-.22,4.78-2.14,6.21-4.25,2.83-4.17,4.23-10.12,3-15.07-.63-2.53-2.47-4.68-5.17-4.94-2.32-.22-4.37,1.17-5.76,2.92-1.64,2.07-2.42,4.49-3.02,7.03-.67,2.81-1.11,5.75-1.2,8.64-.12,3.95,1.68,9.22,6.46,9.08,2.64-.08,4.7-2.12,6.23-4.07s2.66-3.98,3.5-6.27c1.59-4.27,1.81-9.14,.61-13.54-.64-2.34-1.66-5.16-4.19-6-2.68-.89-5.24,.88-7.14,2.59-6.57,5.94-9.07,18.22-2.03,24.8,1.67,1.56,3.86,2.75,6.2,2.73,2.61-.03,4.75-1.52,6.23-3.58,2.93-4.11,3.71-9.59,2.87-14.48-.78-4.58-3.53-10.26-8.91-10.18-4.9,.07-8.58,4.21-9.42,8.79-.49,2.69-.3,5.39-.02,8.09,.14,1.34,1.05,2.5,2.5,2.5,1.24,0,2.64-1.15,2.5-2.5-.32-3.08-.98-7.22,1.01-9.91,.7-.94,1.89-1.76,2.99-1.94,1-.17,1.84,.2,2.53,1.14,1.93,2.6,2.44,6.42,2.06,9.56-.19,1.57-.65,3.17-1.35,4.59-.56,1.13-1.34,2.67-2.72,2.91-.81,.14-1.9-.36-2.68-1-1.05-.86-1.9-2.06-2.36-3.33-.99-2.73-.74-5.85,.15-8.56s2.66-5.34,5.04-6.92c.27-.18,.57-.31,.84-.47,.38-.23,.2,.07,.09-.05,.35,.39,.55,1.2,.71,1.69,.47,1.44,.76,2.91,.83,4.42,.14,3.08-.47,6.2-1.89,8.95-.7,1.35-1.54,2.61-2.58,3.72-.44,.47-.97,1.09-1.6,1.32-.26,.09-.06,.05-.23,.04-.03,0-.27-.11-.16-.03-.56-.4-.93-1.7-1.03-2.54-.21-1.66,.04-3.46,.27-5.11,.29-2.11,.77-4.21,1.39-6.25,.39-1.26,1.05-2.62,2.12-3.45,.29-.23,.55-.37,.72-.34,.15,.02,.4,.25,.57,.6,.65,1.34,.49,3.21,.36,4.64-.15,1.66-.61,3.36-1.29,4.88-.63,1.4-1.48,3.08-2.86,3.9-.97,.58-1.33,.14-1.71-.87-.49-1.27-.68-2.65-.68-4.01,0-2.75,.84-5.42,2.31-7.74,.74-1.16,1.65-2.18,2.69-3.09,.48-.42,1-.77,1.54-1.1,.29-.18,.59-.34,.89-.5,.28-.14,.85-.25,1.07-.43,.34-.28-.34-.09-.26-.17-.01,.01,.17,.52,.19,.57,.22,.81,.35,1.64,.39,2.48,.09,1.67-.07,3.3-.52,4.9s-1.14,3.12-2.11,4.48c-.08,.11-.62,.79-.64,.76-.08-.15,.81-.14,.76-.09-.05,.06-.49-.85-.55-1.02-.91-2.82-.28-6.42,.93-9.05,.67-1.44,1.54-2.76,2.63-3.91l-3.93-.51c1.98,2.96,3.29,6.36,3.56,9.93,.23,2.96,.13,6.54-1.91,8.91-.73,.84-1.45,1.28-2.2,.95-.24-.1-.49-.37-.65-.65-.21-.37-.41-1.03-.49-1.65-.13-1-.04-2.41,.14-3.44,.28-1.59,.57-3.46,1.61-4.76,.52-.65,1.79-1.41,2.5-.84,.93,.75,.9,2.96,.93,4,.06,1.96-.2,3.86-.79,5.74-.23,.73-.5,1.41-.89,2.07-.01,.02-.27,.28-.27,.28-.03-.06,.45-.19,.43-.14,.13-.32,.29,.34,0-.11,.03,.05-.29-.2-.26-.17-1.9-1.47-2.37-4.32-1.52-6.42s3.19-3.07,5.42-2.77c1.15,.15,2.48,.74,3.3,1.71,1.12,1.32,1.69,3.14,2.89,4.48,1.41,1.57,3.31,1.94,5.17,2.7,.21,.09,.55,.27,.68,.32-.22-.08-.02,.05,.07,.09-.12-.06-.03-.14,.03,.12-.01-.05-.06-.32,0-.03,.09,.4-.14,.24,.01,.18,.33-.13,.48-.74,1.03-.74l2.41,1.84-1.94-8.41c-.53-2.29-4.44-2.48-4.82,0-.51,3.34-3.18,6.11-6.59,6.57-3.23,.43-6.2-1.81-7.37-4.74-.59-1.47-.73-3.12-.21-4.63,.22-.66,.59-1.4,1.23-1.75,.45-.25,.71-.23,1.25-.02,.41,.16,.93,.54,1.19,.87,.43,.55,.55,1.02,.43,1.53-.08,.34-.43,.78-.62,.93-.54,.42-1.12,.64-1.7,.7s-1.22-.03-1.67-.34-.78-.83-.95-1.39c-.44-1.48,.08-2.99,1.38-4.02l-2.43,.64c.07,.01,.56,.16,.5,.13-.23-.12,0,0,.09,.1,.23,.27,.24,.24,.35,.58,.15,.44,.18,.49,.1,.89-.03,.13-.05,.28-.2,.46-.74,.88-2.54,.75-3.38-.34-.94-1.22-.64-3.47,.15-4.25,.16-.16,.39-.34,.82-.51-.32,.13,.98-.2,.51-.12,.16-.02,.33,0,.49,0-.55-.02,.21,.11-.07-.01-.24-.1,.28,.23-.07-.05-.13-.1-.26-.63-.11-.08l.64-2.43c-1.2,1.05-3.29-.25-2.58-1.8l-.9,.9c1.85-1.3,3.91-1.04,5.89,.33,.67,.47,1.53,1.46,1.8,2.07,.45,1.03,.46,2.03-.02,3.25-1.26,3.19-4.75,4.7-7.85,5.43-3.9,.93-8.03,1.35-12.01,1.8-.86,.1-1.77,.2-2.64,.1-.36-.04-.74-.14-1.08-.29-.05-.02-.55-.37-.3-.14-.15-.14-.07-.34-.09-.17,0,0,.02-.43-.02-.18-.04,.26,.09-.36,.1-.42-.02,.16-.03-.03,.01-.03,.15,.02-.02,.07-.18,.1-.18,.03-.33,.14-.52,.09l-1.84-2.41c-.12,1.22-.92,2.28-1.93,2.9l3.03,.39c-.32-.27-.14,.01-.31-.33,.14,.29,.03-.4,.02-.07,.01-.52,0,.03,.07-.44-.02,.15,.26-.12,0-.05,.31-.08,0-.11,.22,.06,.11,.08,.34,.41,.37,.28l4.57-.6c-.43-.98-.38-2.45,.35-3.26,.64-.71,1.59-.59,2.15-.18,0,0,.3,.15,.08,.03,.11,.06-.02,.33,.06,.22,0,0,.13-.36-.04-.04-.02,.05-.14,.26-.12,.23-.12,.13-.32,.37-.28,.28-.04,.09-.19,.09-.19,.06,0-.04,.25,0,.26,.06,.06,.24-.12-.17-.12-.2,0-.49-.02-.97,.18-1.53,.82-2.32,3.86-4.22,6.11-3.3,.98,.4,1.48,1.3,1.76,2.34,.23,.87,.08,1.83-.38,2.35-.85,.97-2.94,.98-4.34,.99-1.52,.02-3.36-.08-4.46-1.03-1.78-1.53-1.85-4.58-.82-6.68,1.44-2.95,5-4.32,8.13-4.81s6.35-.22,9.25,.98c2.67,1.1,5.34,3.25,5.33,6.08,0,.33-.1,.84-.1,1.06,0,0,.21-.03,.22,.01,.01,.11-.28-.14-.03,.01-.34-.21-.38-.22-.62-.41-1.48-1.22-2.72-2.66-4.66-3.12-1.35-.32-2.66,.42-3.08,1.75-.55,1.76-2.94,2.79-4.7,2.05-1.59-.66-2.01-3.14-1.18-4.69,.52-.97,1.5-1.52,2.85-1.68,1.64-.2,3.35,.13,4.97,.42,3.03,.55,6.45,1.27,8.2,4.08,1.61,2.59,1.75,5.84,1.9,8.8,.2,3.85,.46,7.66,1.59,11.38s3.06,8.4,7.75,7.02c4.25-1.25,4.79-5.73,4.69-9.5-.07-2.48-.14-4.96-.21-7.44-.06-2.04-.03-4.1-.47-6.1-.81-3.7-3.28-6.87-7.37-6.24-1.36,.21-2.04,1.89-1.75,3.08,.95,3.83,1.71,7.71,2.23,11.63l4.91-.66c-.77-5.65-2.4-11.06-4.72-16.26-1.14-2.56-5.64-.7-4.57,1.93,3.03,7.43,5.78,15.32,5.28,23.46-.37,6.02-3.1,12.22-7.98,15.93-2.8,2.13-6.04,3.03-9.53,2.95l2.16,3.76,3.69-5.3c1.01-1.45-.31-3.99-2.16-3.76-3.58,.44-6.52,2.14-8.62,5.1-.78,1.1-.2,2.78,.9,3.42,1.25,.73,2.64,.21,3.42-.9h0Z"/><path class="cls-2" d="M152.21,137.99c3.22,0,3.22-5,0-5s-3.22,5,0,5h0Z"/><path class="cls-2" d="M160.36,120.42c-4.49-3.11-9.64-4.96-15.04-5.67l1.26,4.66c.17-.1,.33-.2,.51-.29,.15-.08,.47-.24,.14-.09,.36-.15,.74-.27,1.11-.36,.15-.04,.3-.07,.46-.1,.67-.13-.24-.03,.15-.02,.43,0,.85-.03,1.28,0,1.31,.09,2.56-1.21,2.5-2.5-.06-1.43-1.1-2.41-2.5-2.5-2.15-.14-4.34,.43-6.18,1.54-.91,.55-1.49,1.77-1.15,2.82,.37,1.15,1.26,1.68,2.41,1.84-.54-.07,.41,.07,.51,.08,.31,.05,.62,.11,.93,.17,.54,.11,1.08,.23,1.62,.37,1.18,.3,2.35,.68,3.49,1.12,.09,.03,.83,.33,.39,.15,.29,.12,.58,.25,.87,.38,.54,.25,1.07,.51,1.59,.79,1.08,.58,2.12,1.22,3.12,1.92,1.08,.75,2.82,.23,3.42-.9,.67-1.28,.25-2.62-.9-3.42h0Z"/><path class="cls-2" d="M145.93,129.85c2.97,5.47,5.38,11.19,7.22,17.13,.62,2,3.49,2.53,4.57,.6,1.02-1.81,1.26-3.72,.94-5.75-.21-1.34-1.88-2.07-3.08-1.75-1.42,.39-1.96,1.74-1.75,3.08-.05-.31,0,.47,0,.46v.28c.01-.15,0-.14-.03,.04-.11,.55-.16,.67-.41,1.11l4.57,.6c-1.96-6.34-4.55-12.5-7.72-18.33-.64-1.19-2.28-1.56-3.42-.9-1.2,.7-1.54,2.23-.9,3.42h0Z"/><text class="cls-1" transform="translate(0 337.02)"><tspan x="0" y="0">TechForAll</tspan></text></svg>